<mxfile host="app.diagrams.net" agent="Mozilla/5.0 (Windows NT 10.0; Win64; x64) AppleWebKit/537.36 (KHTML, like Gecko) Chrome/130.0.0.0 Safari/537.36" version="24.8.2">
  <diagram name="Page-1" id="XjKNdMhh2U0nfwWWohRo">
    <mxGraphModel dx="1518" dy="614" grid="1" gridSize="10" guides="1" tooltips="1" connect="1" arrows="1" fold="1" page="1" pageScale="1" pageWidth="850" pageHeight="1100" math="0" shadow="0">
      <root>
        <mxCell id="0" />
        <mxCell id="1" parent="0" />
        <mxCell id="MJ7d8MGrej0oFUK3ACLP-37" value="" style="edgeStyle=orthogonalEdgeStyle;rounded=0;orthogonalLoop=1;jettySize=auto;html=1;" parent="1" source="MJ7d8MGrej0oFUK3ACLP-1" target="MJ7d8MGrej0oFUK3ACLP-35" edge="1">
          <mxGeometry relative="1" as="geometry" />
        </mxCell>
        <mxCell id="MJ7d8MGrej0oFUK3ACLP-1" value="Початок" style="ellipse;whiteSpace=wrap;html=1;" parent="1" vertex="1">
          <mxGeometry x="120" y="90" width="130" height="50" as="geometry" />
        </mxCell>
        <mxCell id="MJ7d8MGrej0oFUK3ACLP-2" value="&lt;font style=&quot;font-size: 24px;&quot;&gt;Main&lt;/font&gt;" style="text;html=1;align=center;verticalAlign=middle;resizable=0;points=[];autosize=1;strokeColor=none;fillColor=none;" parent="1" vertex="1">
          <mxGeometry x="140" y="30" width="80" height="40" as="geometry" />
        </mxCell>
        <mxCell id="MJ7d8MGrej0oFUK3ACLP-3" value="&lt;font style=&quot;font-size: 24px;&quot;&gt;Factorial function&lt;/font&gt;" style="text;html=1;align=center;verticalAlign=middle;resizable=0;points=[];autosize=1;strokeColor=none;fillColor=none;" parent="1" vertex="1">
          <mxGeometry x="720" y="30" width="210" height="40" as="geometry" />
        </mxCell>
        <mxCell id="OibU3Z96YZV6N0RUi1n8-6" value="" style="edgeStyle=orthogonalEdgeStyle;rounded=0;orthogonalLoop=1;jettySize=auto;html=1;" edge="1" parent="1" source="MJ7d8MGrej0oFUK3ACLP-4" target="OibU3Z96YZV6N0RUi1n8-1">
          <mxGeometry relative="1" as="geometry" />
        </mxCell>
        <mxCell id="MJ7d8MGrej0oFUK3ACLP-4" value="factiorial (n)" style="ellipse;whiteSpace=wrap;html=1;" parent="1" vertex="1">
          <mxGeometry x="760" y="100" width="130" height="50" as="geometry" />
        </mxCell>
        <mxCell id="MJ7d8MGrej0oFUK3ACLP-9" value="&lt;font style=&quot;font-size: 24px;&quot;&gt;Calculate_sum function&lt;/font&gt;" style="text;html=1;align=center;verticalAlign=middle;resizable=0;points=[];autosize=1;strokeColor=none;fillColor=none;" parent="1" vertex="1">
          <mxGeometry x="325" y="30" width="270" height="40" as="geometry" />
        </mxCell>
        <mxCell id="MJ7d8MGrej0oFUK3ACLP-30" style="edgeStyle=orthogonalEdgeStyle;rounded=0;orthogonalLoop=1;jettySize=auto;html=1;entryX=0.5;entryY=0;entryDx=0;entryDy=0;" parent="1" source="MJ7d8MGrej0oFUK3ACLP-11" target="MJ7d8MGrej0oFUK3ACLP-16" edge="1">
          <mxGeometry relative="1" as="geometry" />
        </mxCell>
        <mxCell id="MJ7d8MGrej0oFUK3ACLP-11" value="calculate_sum (epsilon)" style="ellipse;whiteSpace=wrap;html=1;" parent="1" vertex="1">
          <mxGeometry x="385" y="90" width="150" height="50" as="geometry" />
        </mxCell>
        <mxCell id="MJ7d8MGrej0oFUK3ACLP-14" value="return Sum" style="ellipse;whiteSpace=wrap;html=1;" parent="1" vertex="1">
          <mxGeometry x="270" y="460" width="130" height="50" as="geometry" />
        </mxCell>
        <mxCell id="MJ7d8MGrej0oFUK3ACLP-27" style="edgeStyle=orthogonalEdgeStyle;rounded=0;orthogonalLoop=1;jettySize=auto;html=1;entryX=0.5;entryY=0;entryDx=0;entryDy=0;" parent="1" source="MJ7d8MGrej0oFUK3ACLP-16" target="MJ7d8MGrej0oFUK3ACLP-19" edge="1">
          <mxGeometry relative="1" as="geometry" />
        </mxCell>
        <mxCell id="MJ7d8MGrej0oFUK3ACLP-16" value="&lt;div&gt;n = 0&lt;/div&gt;&lt;div&gt;Sum = 0&lt;/div&gt;" style="rounded=1;whiteSpace=wrap;html=1;" parent="1" vertex="1">
          <mxGeometry x="405" y="165" width="110" height="40" as="geometry" />
        </mxCell>
        <mxCell id="MJ7d8MGrej0oFUK3ACLP-26" style="edgeStyle=orthogonalEdgeStyle;rounded=0;orthogonalLoop=1;jettySize=auto;html=1;entryX=0.5;entryY=0;entryDx=0;entryDy=0;" parent="1" source="MJ7d8MGrej0oFUK3ACLP-19" target="MJ7d8MGrej0oFUK3ACLP-21" edge="1">
          <mxGeometry relative="1" as="geometry" />
        </mxCell>
        <mxCell id="MJ7d8MGrej0oFUK3ACLP-19" value="an = factorial(n)/factorial(2n)" style="shape=process;whiteSpace=wrap;html=1;backgroundOutline=1;" parent="1" vertex="1">
          <mxGeometry x="350" y="240" width="220" height="60" as="geometry" />
        </mxCell>
        <mxCell id="MJ7d8MGrej0oFUK3ACLP-22" style="edgeStyle=orthogonalEdgeStyle;rounded=0;orthogonalLoop=1;jettySize=auto;html=1;entryX=0.5;entryY=0;entryDx=0;entryDy=0;" parent="1" source="MJ7d8MGrej0oFUK3ACLP-21" target="MJ7d8MGrej0oFUK3ACLP-14" edge="1">
          <mxGeometry relative="1" as="geometry" />
        </mxCell>
        <mxCell id="MJ7d8MGrej0oFUK3ACLP-25" style="edgeStyle=orthogonalEdgeStyle;rounded=0;orthogonalLoop=1;jettySize=auto;html=1;entryX=0;entryY=0.5;entryDx=0;entryDy=0;" parent="1" source="MJ7d8MGrej0oFUK3ACLP-21" target="MJ7d8MGrej0oFUK3ACLP-23" edge="1">
          <mxGeometry relative="1" as="geometry" />
        </mxCell>
        <mxCell id="MJ7d8MGrej0oFUK3ACLP-21" value="an &amp;lt; epsilon?" style="rhombus;whiteSpace=wrap;html=1;" parent="1" vertex="1">
          <mxGeometry x="407.5" y="330" width="105" height="100" as="geometry" />
        </mxCell>
        <mxCell id="MJ7d8MGrej0oFUK3ACLP-24" style="edgeStyle=orthogonalEdgeStyle;rounded=0;orthogonalLoop=1;jettySize=auto;html=1;entryX=1;entryY=0.5;entryDx=0;entryDy=0;" parent="1" source="MJ7d8MGrej0oFUK3ACLP-23" target="MJ7d8MGrej0oFUK3ACLP-19" edge="1">
          <mxGeometry relative="1" as="geometry" />
        </mxCell>
        <mxCell id="MJ7d8MGrej0oFUK3ACLP-23" value="Sum += an&lt;div&gt;n++&lt;/div&gt;" style="rounded=1;whiteSpace=wrap;html=1;" parent="1" vertex="1">
          <mxGeometry x="565" y="430" width="120" height="60" as="geometry" />
        </mxCell>
        <mxCell id="MJ7d8MGrej0oFUK3ACLP-32" value="Кінець" style="ellipse;whiteSpace=wrap;html=1;" parent="1" vertex="1">
          <mxGeometry x="120" y="390" width="130" height="50" as="geometry" />
        </mxCell>
        <mxCell id="MJ7d8MGrej0oFUK3ACLP-38" value="" style="edgeStyle=orthogonalEdgeStyle;rounded=0;orthogonalLoop=1;jettySize=auto;html=1;" parent="1" source="MJ7d8MGrej0oFUK3ACLP-35" target="MJ7d8MGrej0oFUK3ACLP-36" edge="1">
          <mxGeometry relative="1" as="geometry" />
        </mxCell>
        <mxCell id="MJ7d8MGrej0oFUK3ACLP-35" value="sum = calculate_sum(0.0001)" style="shape=process;whiteSpace=wrap;html=1;backgroundOutline=1;" parent="1" vertex="1">
          <mxGeometry x="82.5" y="180" width="205" height="60" as="geometry" />
        </mxCell>
        <mxCell id="MJ7d8MGrej0oFUK3ACLP-39" value="" style="edgeStyle=orthogonalEdgeStyle;rounded=0;orthogonalLoop=1;jettySize=auto;html=1;" parent="1" source="MJ7d8MGrej0oFUK3ACLP-36" target="MJ7d8MGrej0oFUK3ACLP-32" edge="1">
          <mxGeometry relative="1" as="geometry" />
        </mxCell>
        <mxCell id="MJ7d8MGrej0oFUK3ACLP-36" value="sum" style="shape=parallelogram;perimeter=parallelogramPerimeter;whiteSpace=wrap;html=1;fixedSize=1;" parent="1" vertex="1">
          <mxGeometry x="125" y="280" width="120" height="60" as="geometry" />
        </mxCell>
        <mxCell id="OibU3Z96YZV6N0RUi1n8-3" style="edgeStyle=orthogonalEdgeStyle;rounded=0;orthogonalLoop=1;jettySize=auto;html=1;entryX=0.5;entryY=0;entryDx=0;entryDy=0;" edge="1" parent="1" source="OibU3Z96YZV6N0RUi1n8-1" target="OibU3Z96YZV6N0RUi1n8-2">
          <mxGeometry relative="1" as="geometry">
            <Array as="points">
              <mxPoint x="753" y="220" />
              <mxPoint x="753" y="270" />
              <mxPoint x="753" y="270" />
            </Array>
          </mxGeometry>
        </mxCell>
        <mxCell id="OibU3Z96YZV6N0RUi1n8-5" value="Ні" style="edgeLabel;html=1;align=center;verticalAlign=middle;resizable=0;points=[];" vertex="1" connectable="0" parent="OibU3Z96YZV6N0RUi1n8-3">
          <mxGeometry x="-0.7615" y="-2" relative="1" as="geometry">
            <mxPoint x="-3" y="2" as="offset" />
          </mxGeometry>
        </mxCell>
        <mxCell id="OibU3Z96YZV6N0RUi1n8-8" style="edgeStyle=orthogonalEdgeStyle;rounded=0;orthogonalLoop=1;jettySize=auto;html=1;entryX=0.5;entryY=0;entryDx=0;entryDy=0;" edge="1" parent="1" source="OibU3Z96YZV6N0RUi1n8-1" target="OibU3Z96YZV6N0RUi1n8-7">
          <mxGeometry relative="1" as="geometry" />
        </mxCell>
        <mxCell id="OibU3Z96YZV6N0RUi1n8-1" value="n&amp;gt;=2?" style="rhombus;whiteSpace=wrap;html=1;" vertex="1" parent="1">
          <mxGeometry x="785" y="180" width="80" height="80" as="geometry" />
        </mxCell>
        <mxCell id="OibU3Z96YZV6N0RUi1n8-2" value="return 1" style="ellipse;whiteSpace=wrap;html=1;" vertex="1" parent="1">
          <mxGeometry x="700" y="290" width="105" height="50" as="geometry" />
        </mxCell>
        <mxCell id="OibU3Z96YZV6N0RUi1n8-10" value="" style="edgeStyle=orthogonalEdgeStyle;rounded=0;orthogonalLoop=1;jettySize=auto;html=1;" edge="1" parent="1" source="OibU3Z96YZV6N0RUi1n8-7" target="OibU3Z96YZV6N0RUi1n8-9">
          <mxGeometry relative="1" as="geometry" />
        </mxCell>
        <mxCell id="OibU3Z96YZV6N0RUi1n8-7" value="result = n*factorial(n-1)" style="shape=process;whiteSpace=wrap;html=1;backgroundOutline=1;" vertex="1" parent="1">
          <mxGeometry x="870" y="260" width="120" height="60" as="geometry" />
        </mxCell>
        <mxCell id="OibU3Z96YZV6N0RUi1n8-9" value="return result" style="ellipse;whiteSpace=wrap;html=1;" vertex="1" parent="1">
          <mxGeometry x="877.5" y="355" width="105" height="50" as="geometry" />
        </mxCell>
      </root>
    </mxGraphModel>
  </diagram>
</mxfile>
